<svg width="18" height="10" viewBox="0 0 18 10" fill="none" xmlns="http://www.w3.org/2000/svg">
  <path
    d="M15.4357 1.00721C15.8263 0.61669 16.4594 0.61669 16.85 1.00721C17.2405 1.39774 17.2405 2.0309 16.85 2.42143L15.4357 1.00721ZM10.4142 7.44297L11.1213 8.15007L11.1213 8.15007L10.4142 7.44297ZM7.58579 7.44296L6.87868 8.15007L6.87868 8.15007L7.58579 7.44296ZM1.15004 2.42143C0.759511 2.0309 0.759511 1.39774 1.15004 1.00721C1.54056 0.61669 2.17373 0.61669 2.56425 1.00721L1.15004 2.42143ZM16.85 2.42143L11.1213 8.15007L9.70711 6.73586L15.4357 1.00721L16.85 2.42143ZM6.87868 8.15007L1.15004 2.42143L2.56425 1.00721L8.29289 6.73586L6.87868 8.15007ZM11.1213 8.15007C9.94975 9.32165 8.05025 9.32164 6.87868 8.15007L8.29289 6.73586C8.68342 7.12638 9.31658 7.12638 9.70711 6.73586L11.1213 8.15007Z"
    fill="#583FB5" />
</svg>
