<?xml version="1.0" standalone="no"?><!DOCTYPE svg PUBLIC "-//W3C//DTD SVG 1.1//EN" "http://www.w3.org/Graphics/SVG/1.1/DTD/svg11.dtd"><svg t="1629092984867" class="icon" viewBox="0 0 1024 1024" version="1.1" xmlns="http://www.w3.org/2000/svg" p-id="9467" xmlns:xlink="http://www.w3.org/1999/xlink" width="32" height="32"><defs><style type="text/css"></style></defs><path d="M109.714286 950.857143h164.571428v-164.571429H109.714286v164.571429z m201.142857 0h182.857143v-164.571429H310.857143v164.571429z m-201.142857-201.142857h164.571428V566.857143H109.714286v182.857143z m201.142857 0h182.857143V566.857143H310.857143v182.857143zM109.714286 530.285714h164.571428V365.714286H109.714286v164.571428z m420.571428 420.571429h182.857143v-164.571429H530.285714v164.571429zM310.857143 530.285714h182.857143V365.714286H310.857143v164.571428z m438.857143 420.571429h164.571428v-164.571429h-164.571428v164.571429z m-219.428572-201.142857h182.857143V566.857143H530.285714v182.857143zM329.142857 256V91.428571q0-7.428571-5.428571-12.857142T310.857143 73.142857h-36.571429q-7.428571 0-12.857143 5.428572T256 91.428571v164.571429q0 7.428571 5.428571 12.857143T274.285714 274.285714h36.571429q7.428571 0 12.857143-5.428571T329.142857 256z m420.571429 493.714286h164.571428V566.857143h-164.571428v182.857143zM530.285714 530.285714h182.857143V365.714286H530.285714v164.571428z m219.428572 0h164.571428V365.714286h-164.571428v164.571428z m18.285714-274.285714V91.428571q0-7.428571-5.428571-12.857142T749.714286 73.142857h-36.571429q-7.428571 0-12.857143 5.428572T694.857143 91.428571v164.571429q0 7.428571 5.428571 12.857143t12.857143 5.428571h36.571429q7.428571 0 12.857143-5.428571t5.428571-12.857143z m219.428571-36.571429v731.428572q0 29.714286-21.714285 51.428571t-51.428572 21.714286H109.714286q-29.714286 0-51.428572-21.714286t-21.714285-51.428571V219.428571q0-29.714286 21.714285-51.428571t51.428572-21.714286h73.142857v-54.857143q0-37.714286 26.857143-64.571428T274.285714 0h36.571429q37.714286 0 64.571428 26.857143t26.857143 64.571428v54.857143h219.428572v-54.857143q0-37.714286 26.857143-64.571428t64.571428-26.857143h36.571429q37.714286 0 64.571428 26.857143t26.857143 64.571428v54.857143h73.142857q29.714286 0 51.428572 21.714286t21.714285 51.428571z" p-id="9468" fill="#08ACC0"></path></svg>