<?xml version="1.0" standalone="no"?><!DOCTYPE svg PUBLIC "-//W3C//DTD SVG 1.1//EN" "http://www.w3.org/Graphics/SVG/1.1/DTD/svg11.dtd"><svg t="1630698893849" class="icon" viewBox="0 0 1024 1024" version="1.1" xmlns="http://www.w3.org/2000/svg" p-id="19291" xmlns:xlink="http://www.w3.org/1999/xlink" width="32" height="32"><defs><style type="text/css"></style></defs><path d="M512 448c191.328 0 346.976 123.968 351.872 341.408L864 800H160c0-224 157.6-352 352-352z m-11.648 56l-1.792 2.272-41.216 63.776a16 16 0 0 0-2.496 10.176l0.48 2.624 41.216 153.92a16 16 0 0 0 29.92 2.72l0.992-2.688 41.216-153.92a16 16 0 0 0-0.768-10.464l-1.28-2.368-41.184-63.776a16 16 0 0 0-25.088-2.272z m189.92-278.112l3.296 0.544a128.032 128.032 0 0 1 49.44 229.696c122.976 27.84 213.536 126.272 213.536 279.872h-65.088c-11.648-166.016-114.112-273.664-251.456-308.064A191.456 191.456 0 0 0 700.544 288c0-21.76-3.616-42.624-10.24-62.112z m-360 0A191.744 191.744 0 0 0 320 288c0 55.2 23.296 104.96 60.544 139.936C243.2 462.336 140.736 569.984 129.088 736H64c0-153.6 90.56-252.032 213.536-279.872a128.032 128.032 0 0 1 49.408-229.664l3.328-0.576zM512 128a160 160 0 1 1 0 320 160 160 0 0 1 0-320z" p-id="19292" fill="#1296db"></path></svg>