<?xml version="1.0" standalone="no"?><!DOCTYPE svg PUBLIC "-//W3C//DTD SVG 1.1//EN" "http://www.w3.org/Graphics/SVG/1.1/DTD/svg11.dtd"><svg t="1629051233102" class="icon" viewBox="0 0 1024 1024" version="1.1" xmlns="http://www.w3.org/2000/svg" p-id="5405" xmlns:xlink="http://www.w3.org/1999/xlink" width="32" height="32"><defs><style type="text/css"></style></defs><path d="M707.44064 324.79232H473.7024a79.29856 79.29856 0 0 0-77.88544-64.67584H225.28a79.36 79.36 0 0 0-79.36 79.40096V698.18368a79.38048 79.38048 0 0 0 79.36 79.36h482.16064a79.38048 79.38048 0 0 0 79.38048-79.36v-294.03136a79.36 79.36 0 0 0-79.38048-79.36z m-18.944 279.73632c0 14.68416-11.91936 26.56256-26.58304 26.56256h-54.33344v54.35392c0 14.68416-11.8784 26.56256-26.58304 26.56256h-43.25376c-7.33184 0-13.98784-2.9696-18.80064-7.80288a26.54208 26.54208 0 0 1-7.80288-18.80064l0.02048-54.31296h-54.31296c-7.35232 0-14.00832-2.9696-18.80064-7.80288a26.4192 26.4192 0 0 1-7.80288-18.75968v-43.27424c0-14.68416 11.8784-26.56256 26.56256-26.56256l54.33344-0.04096v-54.31296c0-14.68416 11.91936-26.56256 26.58304-26.56256h43.25376c14.70464 0 26.60352 11.8784 26.60352 26.56256l-0.02048 54.35392 54.33344-0.04096a26.624 26.624 0 0 1 26.60352 26.60352v43.27424zM857.27232 332.92288h-60.88704c12.55424 15.48288 20.3776 34.87744 20.3776 56.27904v332.36992c0 2.99008-0.6144 5.8368-0.90112 8.76544 11.34592-11.55072 20.60288-25.088 25.92768-39.69024l63.73376-281.64096c15.33952-42.04544-6.26688-76.0832-48.25088-76.0832z" p-id="5406" fill="#08ACC0"></path></svg>