<?xml version="1.0" standalone="no"?><!DOCTYPE svg PUBLIC "-//W3C//DTD SVG 1.1//EN" "http://www.w3.org/Graphics/SVG/1.1/DTD/svg11.dtd"><svg t="1629051225674" class="icon" viewBox="0 0 1024 1024" version="1.1" xmlns="http://www.w3.org/2000/svg" p-id="5210" xmlns:xlink="http://www.w3.org/1999/xlink" width="32" height="32"><defs><style type="text/css"></style></defs><path d="M928 256H544l-128-128H96C42.98 128 0 170.98 0 224v576c0 53.02 42.98 96 96 96h832c53.02 0 96-42.98 96-96V352c0-53.02-42.98-96-96-96z m-192 336c0 17.68-14.32 32-32 32h-144v144c0 17.68-14.32 32-32 32h-32c-17.68 0-32-14.32-32-32v-144h-144c-17.68 0-32-14.32-32-32v-32c0-17.68 14.32-32 32-32h144v-144c0-17.68 14.32-32 32-32h32c17.68 0 32 14.32 32 32v144h144c17.68 0 32 14.32 32 32v32z" p-id="5211" fill="#08ACC0"></path></svg>