<?xml version="1.0" standalone="no"?><!DOCTYPE svg PUBLIC "-//W3C//DTD SVG 1.1//EN" "http://www.w3.org/Graphics/SVG/1.1/DTD/svg11.dtd"><svg t="1629867367864" class="icon" viewBox="0 0 1024 1024" version="1.1" xmlns="http://www.w3.org/2000/svg" p-id="1533" xmlns:xlink="http://www.w3.org/1999/xlink" width="32" height="32"><defs><style type="text/css"></style></defs><path d="M708.010667 96A251.52 251.52 0 0 0 512 189.610667 251.989333 251.989333 0 0 0 64 347.989333C64 679.978667 512 928 512 928s448-248.021333 448-580.010667a251.989333 251.989333 0 0 0-251.989333-251.989333m0 64c50.218667 0 97.408 19.541333 132.906666 55.04A186.752 186.752 0 0 1 896 348.032c0 32.853333-5.418667 66.56-16.042667 100.266667a458.837333 458.837333 0 0 1-44.16 96.341333c-33.706667 56.448-81.237333 113.365333-141.312 169.130667A1274.368 1274.368 0 0 1 511.957333 853.333333a1270.314667 1270.314667 0 0 1-180.522666-137.813333c-60.586667-55.978667-108.544-113.109333-142.549334-169.813333a460.458667 460.458667 0 0 1-44.629333-96.853334A333.354667 333.354667 0 0 1 128 347.989333c0-50.218667 19.541333-97.408 55.04-132.906666A186.752 186.752 0 0 1 316.032 160c57.002667 0 110.336 25.472 146.261333 69.888L512 291.370667l49.749333-61.482667a187.349333 187.349333 0 0 1 146.261334-69.888" p-id="1534" fill="#707070"></path></svg>