<svg width="217" height="112" viewBox="0 0 217 112" fill="none" xmlns="http://www.w3.org/2000/svg">
<path d="M12.825 99.5406V105.891H6.925V99.4656L0.325 88.3906H6.55L10.125 94.4406L13.725 88.3906H19.425L12.825 99.5406ZM34.726 102.841H28.076L26.901 105.891H20.901L28.551 88.3906H34.351L42.001 105.891H35.901L34.726 102.841ZM33.101 98.5906L31.401 94.1906L29.701 98.5906H33.101ZM49.6137 92.9656H44.4887V88.3906H60.6387V92.9656H55.5137V105.891H49.6137V92.9656ZM65.9211 88.3906H71.8211V105.891H65.9211V88.3906ZM85.9113 101.491H84.3113V105.891H78.4113V88.3906H86.8363C88.453 88.3906 89.8613 88.6573 91.0613 89.1906C92.2613 89.724 93.1863 90.4906 93.8363 91.4906C94.4863 92.4906 94.8113 93.6573 94.8113 94.9906C94.8113 96.2406 94.528 97.3323 93.9613 98.2656C93.3947 99.199 92.578 99.9406 91.5113 100.491L95.1863 105.891H88.8863L85.9113 101.491ZM88.8613 94.9906C88.8613 94.3406 88.6613 93.8406 88.2613 93.4906C87.8613 93.124 87.2613 92.9406 86.4613 92.9406H84.3113V97.0406H86.4613C87.2613 97.0406 87.8613 96.8656 88.2613 96.5156C88.6613 96.149 88.8613 95.6406 88.8613 94.9906ZM100.789 88.3906H106.689V105.891H100.789V88.3906ZM128.904 105.891L128.854 97.9156L125.054 104.316H122.454L118.654 98.1906V105.891H113.279V88.3906H118.129L123.829 97.7156L129.379 88.3906H134.229L134.279 105.891H128.904Z" fill="#583FB5"/>
<path d="M163.1 102.841H156.45L155.275 105.891H149.275L156.925 88.3906H162.725L170.375 105.891H164.275L163.1 102.841ZM161.475 98.5906L159.775 94.1906L158.075 98.5906H161.475ZM182.567 101.491H180.967V105.891H175.067V88.3906H183.492C185.108 88.3906 186.517 88.6573 187.717 89.1906C188.917 89.724 189.842 90.4906 190.492 91.4906C191.142 92.4906 191.467 93.6573 191.467 94.9906C191.467 96.2406 191.183 97.3323 190.617 98.2656C190.05 99.199 189.233 99.9406 188.167 100.491L191.842 105.891H185.542L182.567 101.491ZM185.517 94.9906C185.517 94.3406 185.317 93.8406 184.917 93.4906C184.517 93.124 183.917 92.9406 183.117 92.9406H180.967V97.0406H183.117C183.917 97.0406 184.517 96.8656 184.917 96.5156C185.317 96.149 185.517 95.6406 185.517 94.9906ZM209.37 102.841H202.72L201.545 105.891H195.545L203.195 88.3906H208.995L216.645 105.891H210.545L209.37 102.841ZM207.745 98.5906L206.045 94.1906L204.345 98.5906H207.745Z" fill="#F8D349"/>
<rect width="11.897" height="26.4378" rx="5.9485" transform="matrix(0.866025 0.500001 -0.499999 0.866026 89.2189 0)" fill="#F8D349"/>
<rect width="11.897" height="26.4378" rx="5.9485" transform="matrix(0.866025 0.500001 -0.499999 0.866026 89.2189 0)" fill="#F8D349"/>
<rect x="110.634" y="6.08057" width="11.897" height="39.6567" rx="5.9485" transform="rotate(30 110.634 6.08057)" fill="#F8D349"/>
<rect width="11.897" height="52.8756" rx="5.9485" transform="matrix(0.866026 0.499999 -0.500001 0.866025 132.371 11.3149)" fill="#F8D349"/>
<rect x="107.461" y="50.2319" width="11.897" height="25.909" rx="5.9485" fill="#F8D349"/>
</svg>
