<svg width="25" height="32" viewBox="0 0 25 32" fill="none" xmlns="http://www.w3.org/2000/svg">
  <path fill-rule="evenodd" clip-rule="evenodd"
    d="M10.3202 20.9047C10.3023 20.9941 10.2666 21.0657 10.2487 21.1551C9.08613 25.7159 8.96093 26.7354 7.7626 28.8638C7.19026 29.8654 6.54638 30.8312 5.83096 31.7433C5.74154 31.8506 5.66999 31.9758 5.50902 31.9401C5.33017 31.9043 5.31228 31.7433 5.29439 31.6002C5.09765 30.2052 4.99034 28.828 5.044 27.415C5.09765 25.5907 5.33017 24.9647 7.69106 15.074C7.72683 14.931 7.69104 14.8058 7.63739 14.6627C7.08294 13.1424 6.95774 11.6043 7.45854 10.0303C8.53167 6.64998 12.3413 6.39958 13.0209 9.18971C13.4323 10.9067 12.3413 13.1603 11.5007 16.5049C10.8031 19.2592 14.0404 21.2088 16.8127 19.2056C19.3703 17.3634 20.354 12.9278 20.1572 9.77993C19.7816 3.52 12.9136 2.16071 8.54955 4.18177C3.5595 6.489 2.41483 12.6953 4.6684 15.5212C4.95457 15.8789 5.1692 16.0935 5.07977 16.4691C4.93669 17.0415 4.81148 17.6138 4.65051 18.1682C4.52531 18.5796 4.18549 18.7406 3.75624 18.5617C2.91562 18.2219 2.23597 17.7032 1.66364 17.0057C-0.250112 14.6269 -0.804561 9.9409 1.73518 5.97032C4.5432 1.57048 9.76577 -0.218059 14.5233 0.318507C20.2109 0.962385 23.8238 4.86141 24.4855 9.27913C24.7896 11.2823 24.575 16.2545 21.7491 19.76C18.4939 23.7843 13.2356 24.0526 10.8031 21.5844C10.6422 21.3697 10.4991 21.1372 10.3202 20.9047Z"
    fill="#583FB5" />
</svg>
