<svg width="61" height="61" viewBox="0 0 61 61" fill="none" xmlns="http://www.w3.org/2000/svg">
<path d="M53.5851 12.8174L52.7742 12.0065L42.157 1.38933L41.3462 0.578448C40.9791 0.211397 40.4701 0 39.9495 0H9.42633C8.17899 0 6.83594 0.96338 6.83594 3.07735V41.0172V58.4096V58.8966C6.83594 59.7768 7.72149 60.6351 8.76901 60.9053C8.82159 60.919 8.87208 60.939 8.92676 60.9495C9.09083 60.9821 9.25806 61 9.42633 61H51.5731C51.7414 61 51.9086 60.9821 52.0727 60.9495C52.1274 60.939 52.1779 60.919 52.2304 60.9053C53.278 60.6351 54.1635 59.7768 54.1635 58.8966V58.4096V41.0172V14.701C54.1635 13.8943 54.0668 13.2991 53.5851 12.8174ZM50.4141 12.6207H41.5428V3.7494L50.4141 12.6207ZM9.42633 58.8966C9.35166 58.8966 9.28435 58.8692 9.21809 58.845C9.05402 58.7672 8.93939 58.6031 8.93939 58.4096V43.1207H52.0601V58.4096C52.0601 58.6031 51.9454 58.7661 51.7814 58.845C51.7151 58.8692 51.6478 58.8966 51.5731 58.8966H9.42633ZM8.93939 41.0172V3.07735C8.93939 2.84912 8.97409 2.10345 9.42633 2.10345H39.5004C39.4657 2.23597 39.4394 2.37269 39.4394 2.51467V14.7241H51.6488C51.7908 14.7241 51.9265 14.6978 52.059 14.6631C52.059 14.6789 52.0601 14.6852 52.0601 14.701V41.0172H8.93939Z" fill="#583FB5"/>
<path d="M23.1823 47.0582C22.8321 46.7711 22.4366 46.5544 21.996 46.4114C21.5553 46.2673 21.1094 46.1958 20.6592 46.1958H17.6113V56.793H19.3372V52.9679H20.6172C21.1725 52.9679 21.6815 52.8869 22.1411 52.7239C22.6007 52.5608 22.994 52.3305 23.3201 52.0339C23.6461 51.7373 23.8996 51.3703 24.0826 50.9338C24.2645 50.4974 24.356 50.0115 24.356 49.474C24.356 48.966 24.2477 48.5085 24.0321 48.1005C23.8165 47.6924 23.5325 47.3464 23.1823 47.0582ZM22.5281 50.5594C22.4219 50.8518 22.2841 51.079 22.1116 51.242C21.9392 51.405 21.7499 51.5228 21.5437 51.5943C21.3376 51.6658 21.1283 51.7026 20.9179 51.7026H19.3362V47.5041H20.6298C21.0704 47.5041 21.4249 47.5736 21.6941 47.7124C21.9623 47.8512 22.1705 48.0237 22.3199 48.2298C22.4682 48.436 22.566 48.6516 22.6144 48.8766C22.6617 49.1017 22.6859 49.3005 22.6859 49.473C22.6859 49.9052 22.6333 50.267 22.5281 50.5594Z" fill="#583FB5"/>
<path d="M33.6062 47.7481C33.1603 47.2791 32.5997 46.9015 31.9234 46.6196C31.2472 46.3378 30.4637 46.1958 29.5728 46.1958H26.3809V56.793H30.3921C30.5257 56.793 30.7318 56.7761 31.0105 56.7425C31.2882 56.7088 31.5953 56.6331 31.9308 56.5122C32.2663 56.3923 32.6134 56.2124 32.9731 55.9726C33.3328 55.7328 33.6556 55.4047 33.9438 54.9872C34.232 54.5696 34.4686 54.0522 34.6558 53.4338C34.843 52.8154 34.9366 52.0697 34.9366 51.1978C34.9366 50.5647 34.8262 49.9484 34.6064 49.3499C34.3845 48.7525 34.0521 48.2183 33.6062 47.7481ZM32.3483 54.4056C31.8309 55.1533 30.9874 55.5267 29.8179 55.5267H28.1067V47.5031H29.1132C29.9378 47.5031 30.6088 47.6114 31.1262 47.827C31.6437 48.0426 32.0539 48.3255 32.3557 48.6758C32.6575 49.026 32.8605 49.4162 32.9668 49.8474C33.0719 50.2786 33.1245 50.7151 33.1245 51.1557C33.1245 52.5745 32.8658 53.6588 32.3483 54.4056Z" fill="#583FB5"/>
<path d="M37.4395 56.793H39.1937V52.0192H43.6225V50.8402H39.1937V47.5041H44.0674V46.1958H37.4395V56.793Z" fill="#583FB5"/>
<path d="M40.4159 24.1487C39.4493 24.1487 38.263 24.2749 36.8842 24.5252C34.9595 22.4827 32.9507 19.5 31.533 16.572C32.9391 10.6519 32.2355 9.81365 31.9253 9.4182C31.595 8.99751 31.1291 8.31494 30.5991 8.31494C30.3771 8.31494 29.7714 8.41591 29.5305 8.49584C28.9247 8.69777 28.5987 9.16473 28.3379 9.77368C27.5943 11.5122 28.6145 14.4759 29.6641 16.7603C28.767 20.3288 27.2619 24.5998 25.6801 28.0663C21.6941 29.8921 19.577 31.6853 19.3856 33.3965C19.3162 34.0191 19.4634 34.933 20.5583 35.7544C20.858 35.9784 21.2093 36.0973 21.5753 36.0973C22.4955 36.0973 23.4252 35.3926 24.5012 33.8813C25.2857 32.7791 26.1282 31.2762 27.0074 29.4104C29.8239 28.1789 33.3083 27.0661 36.292 26.4425C37.9538 28.0379 39.442 28.8457 40.7208 28.8457C41.6632 28.8457 42.4709 28.4123 43.0557 27.593C43.6646 26.7401 43.8035 25.9765 43.4658 25.3213C43.0609 24.5336 42.0629 24.1487 40.4159 24.1487ZM21.5984 34.322C21.1062 33.9444 21.1346 33.6899 21.1451 33.5942C21.2103 33.0094 22.1264 31.9714 24.3739 30.7083C22.6701 33.855 21.7551 34.2725 21.5984 34.322ZM30.2225 10.2144C30.2678 10.1996 31.3216 11.3723 30.3235 13.5967C28.8237 12.0622 30.1195 10.2491 30.2225 10.2144ZM28.0486 27.0693C29.1161 24.5252 30.109 21.716 30.8609 19.114C32.042 21.2364 33.4608 23.2957 34.8806 24.9448C32.6362 25.4717 30.2467 26.2153 28.0486 27.0693ZM41.6169 26.5655C41.293 27.0188 40.5904 27.0293 40.3443 27.0293C39.7838 27.0293 39.5745 26.6959 38.7173 26.0365C39.4241 25.946 40.0909 25.9229 40.622 25.9229C41.557 25.9229 41.7284 26.0607 41.8578 26.1301C41.8346 26.2048 41.7736 26.3457 41.6169 26.5655Z" fill="#583FB5"/>
</svg>
