<svg width="21" height="17" viewBox="0 0 21 17" fill="none" xmlns="http://www.w3.org/2000/svg">
<path fill-rule="evenodd" clip-rule="evenodd" d="M6.44 13.2825C4.2 13.1989 2.8 11.6089 2.436 10.2979C3.052 10.4094 3.668 10.3815 4.284 10.2421C4.312 10.2421 4.312 10.2142 4.34 10.2142C3.136 9.93524 2.184 9.29367 1.54 8.23369C1.12 7.53634 0.896 6.7832 0.924 5.94637C1.54 6.2811 2.156 6.44846 2.828 6.47636C1.932 5.83479 1.316 4.97007 1.064 3.8822C0.812 2.79433 0.98 1.76224 1.512 0.785943C3.836 3.51957 6.776 5.02586 10.388 5.24902C10.36 5.08165 10.332 4.94218 10.332 4.77482C10.22 3.77063 10.416 2.82222 10.948 1.98539C11.62 0.925415 12.6 0.255953 13.86 0.0606934C15.316 -0.16246 16.576 0.228059 17.612 1.26014C17.696 1.31593 17.752 1.34383 17.836 1.31593C18.732 1.12067 19.544 0.813838 20.328 0.367531C20.356 0.367531 20.356 0.339636 20.384 0.339636C20.384 0.339636 20.384 0.339636 20.412 0.339636C20.076 1.34383 19.46 2.09697 18.564 2.68275C19.404 2.59907 20.188 2.37591 20.972 2.04118C20.972 2.04118 20.972 2.04118 21 2.06908C20.832 2.29223 20.664 2.51538 20.496 2.71064C20.048 3.26853 19.516 3.77062 18.928 4.18903C18.872 4.21693 18.844 4.27272 18.844 4.32851C18.872 4.97008 18.844 5.61164 18.76 6.22531C18.592 7.56423 18.228 8.81948 17.64 10.0468C17.052 11.3021 16.268 12.4178 15.316 13.422C13.664 15.0957 11.704 16.1835 9.408 16.7135C8.624 16.8809 7.812 16.9646 7 16.9925C4.508 17.0762 2.24 16.4625 0.112 15.1515C0.0839999 15.1236 0.056 15.1236 0 15.0957C1.512 15.263 2.94 15.0678 4.312 14.5099C5.124 14.1752 5.796 13.7846 6.44 13.2825Z" fill="#1BA5D4"/>
</svg>
